<?xml version="1.0" encoding="utf-8"?>
<!-- Generator: Adobe Illustrator 28.0.0, SVG Export Plug-In . SVG Version: 6.00 Build 0)  -->
<svg version="1.1" id="Layer_1" xmlns="http://www.w3.org/2000/svg" xmlns:xlink="http://www.w3.org/1999/xlink" x="0px" y="0px"
	 viewBox="0 0 120.6 120" enable-background="new 0 0 120.6 120" xml:space="preserve">
<path d="M102.3,120h-84c-9.9,0-18-8.1-18-18V18c0-9.9,8.1-18,18-18h84c9.9,0,18,8.1,18,18v84C120.3,111.9,112.2,120,102.3,120z"/>
<g>
	<path fill="#FFFFFF" d="M56,60H34.6L23.9,41.4h21.5l0,0L56,60z M56,60L45.3,78.5l10,17.4L66,77.3L76,60l0,0H56z M55.3,24.1
		l-10,17.3h41.4l10-17.3C96.7,24.1,55.3,24.1,55.3,24.1z"/>
</g>
</svg>
